<svg xmlns="http://www.w3.org/2000/svg" version="1.1" xmlns:xlink="http://www.w3.org/1999/xlink" xmlns:svgjs="http://svgjs.dev/svgjs" width="1500" height="390" viewBox="0 0 1500 390"><g transform="matrix(1,0,0,1,-0.9090909090909918,-0.21413779102380204)"><svg viewBox="0 0 396 103" data-background-color="#ececea" preserveAspectRatio="xMidYMid meet" height="390" width="1500" xmlns="http://www.w3.org/2000/svg" xmlns:xlink="http://www.w3.org/1999/xlink"><g id="tight-bounds" transform="matrix(1,0,0,1,0.2400000000000091,0.056554339680644716)"><svg viewBox="0 0 395.52 102.88689132063874" height="102.88689132063874" width="395.52"><g><svg viewBox="0 0 442.32401351351353 115.0620517467476" height="102.88689132063874" width="395.52"><g><svg viewBox="0 0 442.32401351351353 115.0620517467476" height="115.0620517467476" width="442.32401351351353"><g id="textblocktransform"><svg viewBox="0 0 442.32401351351353 115.0620517467476" height="115.0620517467476" width="442.32401351351353" id="textblock"><g><svg viewBox="0 0 442.32401351351353 75.23700000000002" height="75.23700000000002" width="442.32401351351353"><g><svg><g></g><g></g></svg></g><g><svg><g></g><g><svg></svg></g></svg></g><g id="text-0"><svg viewBox="0 0 442.32401351351353 75.23700000000002" height="75.23700000000002" width="442.32401351351353"><g><svg xmlns="http://www.w3.org/2000/svg" xmlns:xlink="http://www.w3.org/1999/xlink" version="1.1" x="0" y="0" viewBox="9 12 81 74" enable-background="new 0 0 100 100" xml:space="preserve" height="75.23700000000002" width="82.35401351351354" class="icon-dxe-0" data-fill-palette-color="accent" id="dxe-0"><g fill="#ffbf5d" data-fill-palette-color="accent"><path d="M75.444 12H23.556C15.529 12 9 18.529 9 26.556V71.445C9 79.471 15.529 86 23.556 86H75.445C83.471 86 90 79.471 90 71.444V26.556C90 18.529 83.471 12 75.444 12M60.478 54.234L43.303 47.638 28.309 71.843 22.358 68.157 40.405 39.027 57.951 45.765 71.494 26.954 77.176 31.044z" fill="#ffbf5d" data-fill-palette-color="accent"></path></g></svg></g><g transform="matrix(1,0,0,1,100.11701351351354,7.105427357601002e-15)"><svg width="342.207" viewBox="2.65 -35.8 211.48 46.5" height="75.23700000000001" data-palette-color="#009b7d"><path d="M6.75 10.7L2.65 10.7 2.65-25.7 6.45-25.7 6.45-21.75Q9.3-26.25 14.65-26.25L14.65-26.25Q20.1-26.25 23.05-22.05L23.05-22.05Q25.65-18.4 25.65-12.45L25.65-12.45Q25.65-6.1 22.25-2.55L22.25-2.55Q19.3 0.55 14.6 0.55L14.6 0.55Q9.85 0.55 6.75-2.9L6.75-2.9 6.75 10.7ZM13.95-22.45L13.95-22.45Q10.7-22.45 8.72-19.8 6.75-17.15 6.75-12.7L6.75-12.7Q6.75-8.1 9-5.5L9-5.5Q10.9-3.3 13.95-3.3L13.95-3.3Q17.35-3.3 19.38-5.88 21.4-8.45 21.4-12.7L21.4-12.7Q21.4-17.4 19.1-20.1L19.1-20.1Q17.05-22.45 13.95-22.45ZM50.95-25.7L50.95 0 46.9 0 46.9-4.05Q44.15 0.55 38.7 0.55L38.7 0.55Q34.95 0.55 32.72-1.33 30.5-3.2 30.5-6.35L30.5-6.35 30.5-25.7 34.55-25.7 34.55-8Q34.55-5.75 36-4.4 37.45-3.05 39.9-3.05L39.9-3.05Q43.1-3.05 45-5.38 46.9-7.7 46.9-11.65L46.9-11.65 46.9-25.7 50.95-25.7ZM76.3-18.65L76.3-18.65 71.8-18.65Q71.59-22.5 66.64-22.5L66.64-22.5Q64.09-22.5 62.62-21.53 61.14-20.55 61.14-18.9L61.14-18.9Q61.14-16.4 65.89-15.3L65.89-15.3 69.84-14.4Q73.69-13.5 75.39-11.85 77.09-10.2 77.09-7.35L77.09-7.35Q77.09-3.7 74.25-1.58 71.39 0.55 66.55 0.55L66.55 0.55Q61.24 0.55 58.49-1.95L58.49-1.95Q56.2-4 56.05-7.4L56.05-7.4 60.7-7.4Q61.09-5.65 61.8-4.85L61.8-4.85Q63.14-3.25 66.84-3.25L66.84-3.25Q69.59-3.25 71.22-4.28 72.84-5.3 72.84-7L72.84-7Q72.84-9.55 68.89-10.5L68.89-10.5 65.05-11.4Q60.64-12.45 58.89-13.9L58.89-13.9Q56.89-15.55 56.89-18.65L56.89-18.65Q56.89-22.15 59.57-24.2 62.24-26.25 66.75-26.25L66.75-26.25Q71.44-26.25 74.05-23.9L74.05-23.9Q76.3-21.85 76.3-18.65ZM82.59 0L82.59-35.8 86.64-35.8 86.64-22.1Q88.49-24.4 90.34-25.33 92.19-26.25 94.94-26.25L94.94-26.25Q98.69-26.25 100.84-24.38 102.99-22.5 102.99-19.25L102.99-19.25 102.99 0 98.94 0 98.94-17.6Q98.94-20.3 97.29-21.55L97.29-21.55Q95.74-22.7 93.64-22.7L93.64-22.7Q90.49-22.7 88.57-20.35 86.64-18 86.64-14.1L86.64-14.1 86.64 0 82.59 0ZM114.69-25.7L119.94-25.7 119.94-22.4 114.69-22.4 114.69-5.3Q114.69-4.4 115.31-3.78 115.94-3.15 116.94-3.15L116.94-3.15Q117.89-3.15 119.84-3.6L119.84-3.6 120.29 0Q117.19 0.55 115.59 0.55L115.59 0.55Q110.64 0.55 110.64-3.5L110.64-3.5 110.64-22.4 107.14-22.4 107.14-25.7 110.64-25.7 110.64-30.95 114.69-32.8 114.69-25.7ZM124.69 0L124.69-25.7 128.49-25.7 128.49-21Q130.74-26.3 135.59-26.3L135.59-26.3Q136.19-26.3 137.04-26.15L137.04-26.15 137.04-21.95Q133.04-21.9 131.54-20.8L131.54-20.8Q128.79-18.8 128.79-13.35L128.79-13.35 128.79 0 124.69 0ZM163.88-3.45L163.88-3.45 163.88-0.15Q162.19 0.45 161.23 0.45L161.23 0.45Q157.23 0.45 156.88-3.2L156.88-3.2Q154.13 0.55 148.13 0.55L148.13 0.55Q143.98 0.55 141.69-1.75L141.69-1.75Q139.69-3.75 139.69-6.9L139.69-6.9Q139.69-10.5 142.23-12.45L142.23-12.45Q143.69-13.55 148.28-14.6L148.28-14.6 156.69-16.5 156.73-18.65Q156.73-22.5 150.94-22.5L150.94-22.5Q145.38-22.5 144.98-18L144.98-18 140.83-18Q140.98-21.4 142.53-23.2L142.53-23.2Q145.19-26.25 151.13-26.25L151.13-26.25Q160.78-26.25 160.78-19.25L160.78-19.25 160.78-4.9Q160.78-3 162.44-3L162.44-3Q162.63-3 163.48-3.3L163.48-3.3Q163.78-3.4 163.88-3.45ZM156.73-8.65L156.73-13.15 150.13-11.45Q146.58-10.55 145.26-9.6 143.94-8.65 143.94-6.95L143.94-6.95Q143.94-3 149.03-3L149.03-3Q152.63-3 155.13-5.35L155.13-5.35Q156.73-6.8 156.73-8.65L156.73-8.65ZM188.03-17.1L188.03-17.1 183.93-17.1Q183.18-22.5 177.83-22.5L177.83-22.5Q174.48-22.5 172.58-19.85 170.68-17.2 170.68-12.5L170.68-12.5Q170.68-7.85 172.93-5.4L172.93-5.4Q174.83-3.25 178.03-3.25L178.03-3.25Q183.18-3.25 184.18-8.85L184.18-8.85 188.33-8.85Q187.93-4.05 184.88-1.6L184.88-1.6Q182.23 0.55 177.93 0.55L177.93 0.55Q172.28 0.55 169.13-3.45L169.13-3.45Q166.43-6.9 166.43-12.5L166.43-12.5Q166.43-19.2 169.98-23L169.98-23Q173.03-26.25 177.88-26.25L177.88-26.25Q183.48-26.25 186.28-22.5L186.28-22.5Q187.73-20.55 188.03-17.1ZM192.33-35.8L196.38-35.8 196.38-14.8 207.28-25.7 212.58-25.7 203.63-16.85 214.13 0 209.08 0 200.38-13.95 196.38-10.05 196.38 0 192.33 0 192.33-35.8Z" opacity="1" transform="matrix(1,0,0,1,0,0)" fill="#009b7d" class="wordmark-text-0" data-fill-palette-color="primary"></path></svg></g></svg></g></svg></g><g transform="matrix(1,0,0,1,84.4838865810811,92.99865001200003)"><svg viewBox="0 0 273.35624035135135 22.06340173474757" height="22.06340173474757" width="273.35624035135135"><g transform="matrix(1,0,0,1,0,0)"><svg width="273.35624035135135" viewBox="0.75 -25.85 499.2 40.3" height="22.06340173474757" data-palette-color="#009b7d"><path d="M3.2 1L3.2 1Q2 1 1.38 0.28 0.75-0.45 0.75-1.6L0.75-1.6Q0.75-3.65 2.25-5.6L2.25-5.6Q3.45-7.15 4.93-8.43 6.4-9.7 7.83-10.48 9.25-11.25 10.25-11.25L10.25-11.25Q11.2-11.25 11.5-10.45L11.5-10.45Q11.7-10.05 11.7-9.5L11.7-9.5Q11.7-8.5 10.95-8.5L10.95-8.5Q10.6-8.5 10.33-8.83 10.05-9.15 10.05-9.75L10.05-9.75Q9.5-10 8.58-9.53 7.65-9.05 6.65-8.18 5.65-7.3 4.75-6.33 3.85-5.35 3.35-4.65L3.35-4.65Q2.45-3.4 2.45-1.9L2.45-1.9Q2.45-1.2 2.8-0.75 3.15-0.3 3.85-0.3L3.85-0.3Q4.5-0.3 5.4-0.7L5.4-0.7Q6.05-1.05 6.63-1.35 7.2-1.65 7.7-1.9L7.7-1.9Q10.8-3.65 11.2-3.65L11.2-3.65Q11.35-3.65 11.35-3.5L11.35-3.5Q11.35-3.35 11.1-3.1L11.1-3.1Q10.6-2.65 9.5-1.85 8.4-1.05 7.15-0.35 5.9 0.35 4.85 0.7L4.85 0.7Q3.9 1 3.2 1ZM14.1 0.85L14.1 0.85Q12.15 0.85 12.15-0.9L12.15-0.9Q12.15-1 12.17-1.25 12.2-1.5 12.25-1.85L12.25-1.85Q12.75-3.9 14.27-5.83 15.8-7.75 17.8-9.2L17.8-9.2Q18.55-9.8 20.2-9.8L20.2-9.8Q21.15-9.8 21.87-9.53 22.6-9.25 22.9-8.7L22.9-8.7Q23.2-8.2 23.2-7.55L23.2-7.55Q23.2-7.45 23.17-7.25 23.15-7.05 23.1-6.8L23.1-6.8Q23.2-6.85 23.42-6.85 23.65-6.85 24-6.9L24-6.9Q24.35-6.95 24.67-7 25-7.05 25.35-7.05L25.35-7.05 25.55-7.05Q26.1-7.05 25.67-6.63 25.25-6.2 24.55-6.1L24.55-6.1 22.85-5.9Q22.35-4.5 21.12-3.1 19.9-1.7 18.42-0.68 16.95 0.35 15.65 0.65L15.65 0.65Q14.9 0.85 14.1 0.85ZM20.5-6.6L20.5-6.6Q20.8-6.6 21.22-6.63 21.65-6.65 22.2-6.7L22.2-6.7Q22.25-6.8 22.25-7.15L22.25-7.15Q22.25-8.05 21.5-8.4L21.5-8.4Q21.1-8.65 20.5-8.65L20.5-8.65Q19.75-8.65 18.97-8.18 18.2-7.7 17.35-6.95L17.35-6.95Q18.4-6.6 20.5-6.6ZM15.6-0.9L15.6-0.9Q16.1-0.9 17.02-1.38 17.95-1.85 18.95-2.65 19.95-3.45 20.75-4.35L20.75-4.35Q21-4.6 21.25-4.98 21.5-5.35 21.8-5.75L21.8-5.75 20.6-5.6Q17.8-5.2 15.6-5.15L15.6-5.15Q14.5-3.35 14.25-2.15L14.25-2.15Q14.2-1.5 14.6-1.2 15-0.9 15.6-0.9ZM33.55 1.45L33.55 1.45Q32.25 1.45 32.25-0.45L32.25-0.45Q32.25-2.4 33.59-6.2L33.59-6.2Q32-4.15 30.42-2.58 28.85-1 27.3 0L27.3 0Q26.2 0.8 25.3 0.8L25.3 0.8Q24.1 0.8 24.1-0.85L24.1-0.85Q24.1-1.75 24.4-2.5L24.4-2.5Q24.8-3.6 25.57-5.05 26.35-6.5 27.4-7.95 28.45-9.4 29.55-10.4L29.55-10.4Q29.95-10.65 30.05-10.65L30.05-10.65Q30.4-10.65 30.4-10.25L30.4-10.25Q30.4-10.1 30.25-9.85L30.25-9.85Q29.8-9.35 29.2-8.4 28.6-7.45 28.05-6.35 27.5-5.25 27.12-4.33 26.75-3.4 26.75-2.95L26.75-2.95Q26.75-2.05 27.55-2.05L27.55-2.05Q27.9-2.05 28.3-2.3L28.3-2.3Q30.15-3.45 31.7-5.08 33.25-6.7 34.59-9.5L34.59-9.5Q35.05-9.8 35.59-9.8L35.59-9.8Q36.15-9.8 36.52-9.45 36.9-9.1 36.9-8.5L36.9-8.5Q36.9-8.05 36.65-7.45L36.65-7.45Q36.59-7.25 36.47-7.05 36.34-6.85 36.2-6.6L36.2-6.6Q36.05-6.35 35.95-6.13 35.84-5.9 35.75-5.75L35.75-5.75Q34.8-4.05 34.27-2.9 33.75-1.75 33.75-0.9L33.75-0.9Q33.75 0.1 34.65 0.1L34.65 0.1Q35.45 0.1 36.25-0.5L36.25-0.5Q36.75-0.85 37.09-0.85L37.09-0.85Q37.65-0.85 36.87-0.18 36.09 0.5 35 1.05L35 1.05Q33.95 1.45 33.55 1.45ZM38.54 0.8L38.54 0.8Q37.64 0.8 37.64 0.1L37.64 0.1Q37.64-0.35 37.97-1.05 38.29-1.75 38.64-2.4L38.64-2.4Q39.59-4.1 40.39-5.7 41.19-7.3 41.94-9.1L41.94-9.1Q42.29-9.9 42.99-9.9L42.99-9.9Q43.74-9.9 43.44-9L43.44-9Q43.14-8.25 42.84-7.65L42.84-7.65Q41.44-4.8 41.44-3.8L41.44-3.8Q41.44-3.35 41.74-3.25L41.74-3.25Q42.44-3.8 42.79-4.08 43.14-4.35 43.19-4.4L43.19-4.4Q43.89-4.95 44.77-5.68 45.64-6.4 46.69-7.35L46.69-7.35Q48.34-8.85 49.44-8.85L49.44-8.85Q50.79-8.85 50.59-6.4L50.59-6.4Q50.54-5.45 50.59-4.55L50.59-4.55Q50.64-4.35 50.64-3.98 50.64-3.6 50.64-3.1L50.64-3.1Q50.64-2.6 51.24-2.6L51.24-2.6Q51.94-2.6 52.54-3L52.54-3 53.64-3.75 54.74-4.45Q54.84-4.5 55.09-4.5L55.09-4.5Q55.39-4.5 55.09-4.05L55.09-4.05Q51.94-0.15 49.89-0.15L49.89-0.15Q49.49-0.15 49.09-0.3L49.09-0.3Q48.74-0.45 48.59-1.18 48.44-1.9 48.42-2.75 48.39-3.6 48.39-4.05L48.39-4.05 48.44-5.7Q48.44-6.75 47.89-6.75L47.89-6.75Q46.59-6.75 41.49-1.4L41.49-1.4Q41.09-0.9 40.24-0.05 39.39 0.8 38.54 0.8ZM55.69 4.65L55.69 4.65Q55.44 4.65 55.44 4.2L55.44 4.2Q55.44 4.1 55.47 3.93 55.49 3.75 55.54 3.55L55.54 3.55 57.69-1.85 60.24-8.15Q59.64-8.2 58.49-8.13 57.34-8.05 56.54-7.9L56.54-7.9Q56.24-7.85 56.07-7.83 55.89-7.8 55.79-7.8L55.79-7.8Q55.39-7.8 55.24-8.15L55.24-8.15Q55.29-8.45 55.79-8.7L55.79-8.7Q56.04-8.8 56.39-8.88 56.74-8.95 57.24-9.05L57.24-9.05Q57.79-9.15 58.22-9.2 58.64-9.25 58.84-9.3L58.84-9.3Q59.09-9.35 59.34-9.4 59.59-9.45 59.94-9.5L59.94-9.5Q60.24-9.55 60.59-9.6 60.94-9.65 61.34-9.75L61.34-9.75Q61.74-10.3 62.54-11.7 63.34-13.1 64.59-15.4L64.59-15.4Q65.59-17.25 66.22-18.32 66.84-19.4 67.09-19.75L67.09-19.75Q67.54-20.35 68.14-20.35L68.14-20.35Q68.44-20.35 68.44-20.1L68.44-20.1Q68.44-20.05 68.19-19.45L68.19-19.45Q67.89-18.95 67.19-17.6 66.49-16.25 65.69-14.65 64.89-13.05 64.24-11.65 63.59-10.25 63.34-9.6L63.34-9.6Q63.59-9.65 63.92-9.65 64.24-9.65 64.74-9.65L64.74-9.65Q65.29-9.65 65.77-9.63 66.24-9.6 66.59-9.55L66.59-9.55Q67.29-9.4 67.29-9.15L67.29-9.15Q67.29-9.05 66.84-8.8L66.84-8.8Q66.59-8.7 65.89-8.6 65.19-8.5 64.04-8.4L64.04-8.4Q63.74-8.4 63.39-8.38 63.04-8.35 62.64-8.3L62.64-8.3Q61.14-5.85 58.54-0.15L58.54-0.15Q57.59 1.75 57.09 2.8 56.59 3.85 56.49 4.05L56.49 4.05Q56.04 4.65 55.69 4.65ZM81.94 1.35L81.94 1.35Q81.84 1.35 81.74 1.33 81.64 1.3 81.54 1.25L81.54 1.25Q80.84 0.9 80.64 0.25 80.44-0.4 80.54-1.4L80.54-1.4Q80.64-1.8 80.76-2.8 80.89-3.8 81.09-4.4L81.09-4.4 78.54-1.95 77.14-0.6Q75.69 0.85 74.74 0.85L74.74 0.85Q74.34 0.85 74.09 0.55L74.09 0.55Q73.64 0 73.64-0.8L73.64-0.8Q73.64-1.85 74.19-3.05 74.74-4.25 75.49-5.38 76.24-6.5 76.84-7.25L76.84-7.25Q78.34-9.1 79.76-10.15 81.19-11.2 82.74-11.2L82.74-11.2Q83.59-11.2 84.41-10.9 85.24-10.6 85.94-9.9L85.94-9.9 85.99-9.85Q85.99-9.7 85.74-9.55L85.74-9.55Q85.64-9.45 85.56-9.4 85.49-9.35 85.44-9.3L85.44-9.3Q84.84-8.7 84.09-7.3 83.34-5.9 82.79-4.38 82.24-2.85 82.24-1.75L82.24-1.75Q82.24-0.75 82.74-0.4L82.74-0.4Q82.99-0.25 83.29-0.25L83.29-0.25Q83.94-0.25 85.09-1.05L85.09-1.05Q85.14-1.1 85.31-1.23 85.49-1.35 85.84-1.6L85.84-1.6Q86.24-1.9 86.49-1.9L86.49-1.9Q86.74-1.9 86.74-1.7L86.74-1.7Q86.74-1.4 86.34-1L86.34-1Q86.04-0.75 85.66-0.45 85.29-0.15 84.79 0.15L84.79 0.15Q84.04 0.7 83.24 1.03 82.44 1.35 81.94 1.35ZM76.29-1.85L76.29-1.85Q77.34-1.85 80.19-4.95L80.19-4.95Q80.94-5.8 81.54-6.58 82.14-7.35 82.64-8.1L82.64-8.1Q83.54-9.55 83.24-10.1L83.24-10.1Q83.09-10.4 82.64-10.4L82.64-10.4Q82.09-10.4 81.14-9.83 80.19-9.25 79.21-8.35 78.24-7.45 77.44-6.55L77.44-6.55Q76.89-5.85 76.34-4.6 75.79-3.35 75.79-2.55L75.79-2.55Q75.79-1.85 76.29-1.85ZM88.03 0.8L88.03 0.8Q87.13 0.8 87.13 0.1L87.13 0.1Q87.13-0.35 87.46-1.05 87.78-1.75 88.13-2.4L88.13-2.4Q89.08-4.1 89.88-5.7 90.68-7.3 91.43-9.1L91.43-9.1Q91.78-9.9 92.48-9.9L92.48-9.9Q93.23-9.9 92.93-9L92.93-9Q92.63-8.25 92.33-7.65L92.33-7.65Q90.93-4.8 90.93-3.8L90.93-3.8Q90.93-3.35 91.23-3.25L91.23-3.25Q91.93-3.8 92.28-4.08 92.63-4.35 92.68-4.4L92.68-4.4Q93.38-4.95 94.26-5.68 95.13-6.4 96.18-7.35L96.18-7.35Q97.83-8.85 98.93-8.85L98.93-8.85Q100.28-8.85 100.08-6.4L100.08-6.4Q100.03-5.45 100.08-4.55L100.08-4.55Q100.13-4.35 100.13-3.98 100.13-3.6 100.13-3.1L100.13-3.1Q100.13-2.6 100.73-2.6L100.73-2.6Q101.43-2.6 102.03-3L102.03-3 103.13-3.75 104.23-4.45Q104.33-4.5 104.58-4.5L104.58-4.5Q104.88-4.5 104.58-4.05L104.58-4.05Q101.43-0.15 99.38-0.15L99.38-0.15Q98.98-0.15 98.58-0.3L98.58-0.3Q98.23-0.45 98.08-1.18 97.93-1.9 97.91-2.75 97.88-3.6 97.88-4.05L97.88-4.05 97.93-5.7Q97.93-6.75 97.38-6.75L97.38-6.75Q96.08-6.75 90.98-1.4L90.98-1.4Q90.58-0.9 89.73-0.05 88.88 0.8 88.03 0.8ZM114.23 3.75L114.23 3.75Q113.48 3.75 113.13 3L113.13 3Q113.08 2.95 113.08 2.7L113.08 2.7Q113.08 2.45 113.33 1.55L113.33 1.55Q113.43 1.3 113.51 1.05 113.58 0.8 113.68 0.55L113.68 0.55Q113.78 0.3 113.88-0.03 113.98-0.35 114.08-0.7L114.08-0.7Q114.28-1.45 114.28-1.95L114.28-1.95Q114.28-2.65 113.83-2.65L113.83-2.65Q113.68-2.65 113.28-2.4L113.28-2.4Q112.63-1.9 111.91-1.45 111.18-1 110.38-0.6L110.38-0.6 108.78 0.25 107.73 0.85Q107.58 0.9 107.03 1.3L107.03 1.3Q106.53 1.6 105.98 1.6L105.98 1.6Q105.33 1.6 104.53 0.9L104.53 0.9Q103.93 0.3 103.93-0.35L103.93-0.35Q103.93-0.9 104.48-1.9L104.48-1.9Q104.88-2.55 105.83-3.5L105.83-3.5Q106.23-3.9 106.51-4.23 106.78-4.55 106.98-4.75L106.98-4.75Q109.08-7.55 113.48-9.7L113.48-9.7Q114.73-10.35 115.73-10.35L115.73-10.35Q116.83-10.35 117.48-9.45L117.48-9.45Q117.78-10.05 118.46-11.18 119.13-12.3 119.96-13.65 120.78-15 121.56-16.2 122.33-17.4 122.78-18.05L122.78-18.05Q124.13-19.9 124.98-20.85L124.98-20.85Q125.83-21.75 126.53-21.75L126.53-21.75Q126.78-21.75 127.18-21.5L127.18-21.5Q127.53-21.2 127.53-20.7L127.53-20.7Q127.53-19.95 126.88-18.95 126.23-17.95 125.08-16.5L125.08-16.5Q124.98-16.35 124.78-16.13 124.58-15.9 124.33-15.55L124.33-15.55Q123.78-14.75 123.18-13.88 122.58-13 121.88-12.15L121.88-12.15Q120.88-10.85 119.78-9.33 118.68-7.8 117.73-6.15L117.73-6.15Q116.88-4.65 116.28-3.08 115.68-1.5 115.28 0.1L115.28 0.1Q115.23 0.45 115.21 0.68 115.18 0.9 115.18 1L115.18 1 115.23 1.75Q115.28 1.9 115.28 2.45L115.28 2.45Q115.28 3.75 114.23 3.75ZM107.38-0.55L107.38-0.55Q107.93-0.55 108.38-0.75L108.38-0.75Q110.28-1.4 111.98-2.4 113.68-3.4 115.58-5.1L115.58-5.1Q115.83-5.8 116.18-6.6 116.53-7.4 116.93-8.35L116.93-8.35Q116.33-9.6 115.18-9.6L115.18-9.6Q114.43-9.6 113.58-9.1 112.73-8.6 111.68-7.75L111.68-7.75Q110.68-6.95 109.66-5.95 108.63-4.95 107.88-4.03 107.13-3.1 106.83-2.5L106.83-2.5Q106.53-2 106.53-1.35L106.53-1.35Q106.53-0.55 107.38-0.55ZM131.68 4.65L131.68 4.65Q131.43 4.65 131.43 4.2L131.43 4.2Q131.43 4.1 131.45 3.93 131.48 3.75 131.53 3.55L131.53 3.55 133.68-1.85 136.23-8.15Q135.63-8.2 134.48-8.13 133.33-8.05 132.53-7.9L132.53-7.9Q132.23-7.85 132.05-7.83 131.88-7.8 131.78-7.8L131.78-7.8Q131.38-7.8 131.23-8.15L131.23-8.15Q131.28-8.45 131.78-8.7L131.78-8.7Q132.03-8.8 132.38-8.88 132.73-8.95 133.23-9.05L133.23-9.05Q133.78-9.15 134.2-9.2 134.63-9.25 134.83-9.3L134.83-9.3Q135.08-9.35 135.33-9.4 135.58-9.45 135.93-9.5L135.93-9.5Q136.23-9.55 136.58-9.6 136.93-9.65 137.33-9.75L137.33-9.75Q137.73-10.3 138.53-11.7 139.33-13.1 140.58-15.4L140.58-15.4Q141.58-17.25 142.2-18.32 142.83-19.4 143.08-19.75L143.08-19.75Q143.53-20.35 144.13-20.35L144.13-20.35Q144.43-20.35 144.43-20.1L144.43-20.1Q144.43-20.05 144.18-19.45L144.18-19.45Q143.88-18.95 143.18-17.6 142.48-16.25 141.68-14.65 140.88-13.05 140.23-11.65 139.58-10.25 139.33-9.6L139.33-9.6Q139.58-9.65 139.9-9.65 140.23-9.65 140.73-9.65L140.73-9.65Q141.28-9.65 141.75-9.63 142.23-9.6 142.58-9.55L142.58-9.55Q143.28-9.4 143.28-9.15L143.28-9.15Q143.28-9.05 142.83-8.8L142.83-8.8Q142.58-8.7 141.88-8.6 141.18-8.5 140.03-8.4L140.03-8.4Q139.73-8.4 139.38-8.38 139.03-8.35 138.63-8.3L138.63-8.3Q137.13-5.85 134.53-0.15L134.53-0.15Q133.58 1.75 133.08 2.8 132.58 3.85 132.48 4.05L132.48 4.05Q132.03 4.65 131.68 4.65ZM141.27 1.05L141.27 1.05Q140.62 1.05 140.62-0.1L140.62-0.1Q140.62-1.05 141.07-1.95L141.07-1.95Q142.22-4.15 143.17-6.3L143.17-6.3Q143.82-7.6 144.4-8.8 144.97-10 145.47-11L145.47-11Q145.77-11.3 146.07-11.3L146.07-11.3Q146.72-11.3 146.47-10.7L146.47-10.7Q146.37-10.35 146.2-9.88 146.02-9.4 145.77-8.75L145.77-8.75Q144.97-6.65 144.82-5.8L144.82-5.8Q146.22-7.05 147.7-8.13 149.17-9.2 150.47-9.9 151.77-10.6 152.67-10.6L152.67-10.6Q153.47-10.6 153.47-9.95L153.47-9.95Q153.47-9.4 152.97-8.78 152.47-8.15 151.97-8.15L151.97-8.15Q151.72-8.15 151.57-8.3L151.57-8.3Q151.42-8.35 150.97-8.35L150.97-8.35Q149.37-8.35 147.62-6.8L147.62-6.8Q145.77-5.25 144.27-3.08 142.77-0.9 142.07 0.7L142.07 0.7Q141.72 1.05 141.27 1.05ZM159.02 1.35L159.02 1.35Q158.92 1.35 158.82 1.33 158.72 1.3 158.62 1.25L158.62 1.25Q157.92 0.9 157.72 0.25 157.52-0.4 157.62-1.4L157.62-1.4Q157.72-1.8 157.85-2.8 157.97-3.8 158.17-4.4L158.17-4.4 155.62-1.95 154.22-0.6Q152.77 0.85 151.82 0.85L151.82 0.85Q151.42 0.85 151.17 0.55L151.17 0.55Q150.72 0 150.72-0.8L150.72-0.8Q150.72-1.85 151.27-3.05 151.82-4.25 152.57-5.38 153.32-6.5 153.92-7.25L153.92-7.25Q155.42-9.1 156.85-10.15 158.27-11.2 159.82-11.2L159.82-11.2Q160.67-11.2 161.5-10.9 162.32-10.6 163.02-9.9L163.02-9.9 163.07-9.85Q163.07-9.7 162.82-9.55L162.82-9.55Q162.72-9.45 162.65-9.4 162.57-9.35 162.52-9.3L162.52-9.3Q161.92-8.7 161.17-7.3 160.42-5.9 159.87-4.38 159.32-2.85 159.32-1.75L159.32-1.75Q159.32-0.75 159.82-0.4L159.82-0.4Q160.07-0.25 160.37-0.25L160.37-0.25Q161.02-0.25 162.17-1.05L162.17-1.05Q162.22-1.1 162.4-1.23 162.57-1.35 162.92-1.6L162.92-1.6Q163.32-1.9 163.57-1.9L163.57-1.9Q163.82-1.9 163.82-1.7L163.82-1.7Q163.82-1.4 163.42-1L163.42-1Q163.12-0.75 162.75-0.45 162.37-0.15 161.87 0.15L161.87 0.15Q161.12 0.7 160.32 1.03 159.52 1.35 159.02 1.35ZM153.37-1.85L153.37-1.85Q154.42-1.85 157.27-4.95L157.27-4.95Q158.02-5.8 158.62-6.58 159.22-7.35 159.72-8.1L159.72-8.1Q160.62-9.55 160.32-10.1L160.32-10.1Q160.17-10.4 159.72-10.4L159.72-10.4Q159.17-10.4 158.22-9.83 157.27-9.25 156.3-8.35 155.32-7.45 154.52-6.55L154.52-6.55Q153.97-5.85 153.42-4.6 152.87-3.35 152.87-2.55L152.87-2.55Q152.87-1.85 153.37-1.85ZM166.62 1L166.62 1Q165.42 1 164.79 0.28 164.17-0.45 164.17-1.6L164.17-1.6Q164.17-3.65 165.67-5.6L165.67-5.6Q166.87-7.15 168.34-8.43 169.82-9.7 171.24-10.48 172.67-11.25 173.67-11.25L173.67-11.25Q174.62-11.25 174.92-10.45L174.92-10.45Q175.12-10.05 175.12-9.5L175.12-9.5Q175.12-8.5 174.37-8.5L174.37-8.5Q174.02-8.5 173.74-8.83 173.47-9.15 173.47-9.75L173.47-9.75Q172.92-10 171.99-9.53 171.07-9.05 170.07-8.18 169.07-7.3 168.17-6.33 167.27-5.35 166.77-4.65L166.77-4.65Q165.87-3.4 165.87-1.9L165.87-1.9Q165.87-1.2 166.22-0.75 166.57-0.3 167.27-0.3L167.27-0.3Q167.92-0.3 168.82-0.7L168.82-0.7Q169.47-1.05 170.04-1.35 170.62-1.65 171.12-1.9L171.12-1.9Q174.22-3.65 174.62-3.65L174.62-3.65Q174.77-3.65 174.77-3.5L174.77-3.5Q174.77-3.35 174.52-3.1L174.52-3.1Q174.02-2.65 172.92-1.85 171.82-1.05 170.57-0.35 169.32 0.35 168.27 0.7L168.27 0.7Q167.32 1 166.62 1ZM176.57 3.55L176.57 3.55Q176.52 3.55 176.44 3.58 176.37 3.6 176.27 3.6L176.27 3.6Q175.72 3.6 175.72 3.05L175.72 3.05Q175.72 2.7 175.99 2.08 176.27 1.45 176.62 0.83 176.97 0.2 177.07 0L177.07 0Q177.62-0.95 177.94-1.55 178.27-2.15 178.37-2.45L178.37-2.45 179.57-5.3 179.02-5.65Q178.77-5.8 178.64-5.95 178.52-6.1 178.47-6.15L178.47-6.15 178.37-6.35Q178.37-6.65 179.12-6.85L179.12-6.85Q179.42-7.05 180.62-7.35L180.62-7.35 182.37-11 183.27-13.25Q185.27-18.25 187.09-21.48 188.92-24.7 191.37-25.85L191.37-25.85 191.42-25.85Q191.62-25.85 191.97-25.65 192.32-25.45 192.42-25.15L192.42-25.15Q192.47-24.95 192.49-24.73 192.52-24.5 192.52-24.25L192.52-24.25Q192.52-23.2 192.04-21.68 191.57-20.15 190.47-18.45L190.47-18.45Q189.47-16.95 187.94-15.18 186.42-13.4 184.37-11.35L184.37-11.35Q183.42-9.65 182.57-7.9L182.57-7.9Q183.92-8.3 185.72-9.1L185.72-9.1Q186.52-9.35 187.42-9.7 188.32-10.05 189.32-10.55L189.32-10.55Q189.57-10.65 189.87-10.8 190.17-10.95 190.47-11.1L190.47-11.1 192.17-11.85 192.72-11.9Q192.97-11.9 192.82-11.7L192.82-11.7Q192.67-11.4 191.67-10.75 190.67-10.1 189.62-9.55L189.62-9.55 186.82-8.3Q185.87-7.9 185.32-7.65 184.77-7.4 184.57-7.3L184.57-7.3Q184.22-6.85 183.94-6.43 183.67-6 183.47-5.6L183.47-5.6Q183.72-4.5 186.17-2.6L186.17-2.6Q187.17-1.8 187.57-1.45 187.97-1.1 187.87-1.2L187.87-1.2Q188.62-0.65 188.72-0.3L188.72-0.3 188.77-0.1 188.77-0.05Q188.77 0.2 188.32-0.05L188.32-0.05Q187.87-0.15 187.12-0.55L187.12-0.55 185.27-1.5Q184.12-2.1 183.44-2.5 182.77-2.9 182.22-3.3 181.67-3.7 180.82-4.3L180.82-4.3Q179.72-1.85 178.87 0.05L178.87 0.05Q178.82 0.2 178.79 0.28 178.77 0.35 178.77 0.4L178.77 0.4Q178.77 0.55 179.07 0.65L179.07 0.65Q179.37 0.7 179.42 0.85L179.42 0.85Q179.47 1.05 179.49 1.18 179.52 1.3 179.52 1.35L179.52 1.35Q179.52 2.2 178.59 2.8 177.67 3.4 176.57 3.55ZM184.62-13.4L184.62-13.4Q184.77-13.3 185.37-13.88 185.97-14.45 186.74-15.38 187.52-16.3 188.29-17.32 189.07-18.35 189.52-19.15L189.52-19.15Q190.27-20.45 190.77-21.68 191.27-22.9 191.27-23.55L191.27-23.55Q191.27-24.15 190.82-24.15L190.82-24.15Q190.27-24.15 189.42-23.15 188.57-22.15 187.74-20.7 186.92-19.25 186.32-17.95L186.32-17.95Q185.97-17.15 185.59-16.15 185.22-15.15 184.97-14.38 184.72-13.6 184.62-13.4ZM199.71 10.25L199.71 10.25Q198.61 10.25 197.91 9.25 197.21 8.25 197.21 6.9L197.21 6.9Q197.21 6.15 197.46 5.55L197.46 5.55Q197.86 4.7 198.11 4.7L198.11 4.7Q198.31 4.7 198.31 5L198.31 5Q198.31 5.25 198.16 5.65L198.16 5.65Q198.11 5.8 198.09 5.93 198.06 6.05 198.06 6.15L198.06 6.15Q198.06 7.05 198.59 8 199.11 8.95 199.91 8.95L199.91 8.95 200.31 8.85Q201.51 8.55 202.59 7.53 203.66 6.5 204.71 5L204.71 5Q206.11 2.95 207.21 0.58 208.31-1.8 209.11-4.15 209.91-6.5 210.31-8.4L210.31-8.4Q210.31-8.65 210.11-8.65L210.11-8.65Q209.76-8.65 209.01-7.85L209.01-7.85Q208.41-7.2 207.46-6.05 206.51-4.9 205.11-3.3L205.11-3.3 204.31-2.35Q203.51-1.4 202.69-0.98 201.86-0.55 201.16-0.55L201.16-0.55Q200.56-0.55 200.16-0.8L200.16-0.8Q199.66-1.15 199.66-2.05L199.66-2.05Q199.66-3.5 201.01-6.85L201.01-6.85 201.66-8.45Q202.16-9.6 202.54-10.55 202.91-11.5 203.26-12.3L203.26-12.3Q203.61-12.95 204.06-12.95L204.06-12.95Q204.61-12.95 204.26-12.3L204.26-12.3Q202.46-8.2 202.16-5.85L202.16-5.85Q202.11-5.75 202.11-5.58 202.11-5.4 202.11-5.2L202.11-5.2Q202.11-4.1 203.01-4.1L203.01-4.1Q203.61-4.1 204.71-4.8L204.71-4.8Q205.81-5.6 207.46-7.33 209.11-9.05 211.41-11.7L211.41-11.7Q211.81-12.1 212.16-12.5 212.51-12.9 212.81-13.25L212.81-13.25Q213.01-13.45 213.16-13.45L213.16-13.45Q213.31-13.45 213.31-13L213.31-13Q213.31-12.55 213.16-11.85L213.16-11.85Q213.01-11.2 213.01-11.05L213.01-11.05Q212.41-7.4 210.81-3.2L210.81-3.2Q209.16 0.95 206.64 4.5 204.11 8.05 201.01 9.85L201.01 9.85Q200.36 10.25 199.71 10.25ZM214.26 0.85L214.26 0.85Q212.31 0.85 212.31-0.9L212.31-0.9Q212.31-1 212.33-1.25 212.36-1.5 212.41-1.85L212.41-1.85Q212.91-3.9 214.43-5.83 215.96-7.75 217.96-9.2L217.96-9.2Q218.71-9.8 220.36-9.8L220.36-9.8Q221.31-9.8 222.03-9.53 222.76-9.25 223.06-8.7L223.06-8.7Q223.36-8.2 223.36-7.55L223.36-7.55Q223.36-7.45 223.33-7.25 223.31-7.05 223.26-6.8L223.26-6.8Q223.36-6.85 223.58-6.85 223.81-6.85 224.16-6.9L224.16-6.9Q224.51-6.95 224.83-7 225.16-7.05 225.51-7.05L225.51-7.05 225.71-7.05Q226.26-7.05 225.83-6.63 225.41-6.2 224.71-6.1L224.71-6.1 223.01-5.9Q222.51-4.5 221.28-3.1 220.06-1.7 218.58-0.68 217.11 0.35 215.81 0.65L215.81 0.65Q215.06 0.85 214.26 0.85ZM220.66-6.6L220.66-6.6Q220.96-6.6 221.38-6.63 221.81-6.65 222.36-6.7L222.36-6.7Q222.41-6.8 222.41-7.15L222.41-7.15Q222.41-8.05 221.66-8.4L221.66-8.4Q221.26-8.65 220.66-8.65L220.66-8.65Q219.91-8.65 219.13-8.18 218.36-7.7 217.51-6.95L217.51-6.95Q218.56-6.6 220.66-6.6ZM215.76-0.9L215.76-0.9Q216.26-0.9 217.18-1.38 218.11-1.85 219.11-2.65 220.11-3.45 220.91-4.35L220.91-4.35Q221.16-4.6 221.41-4.98 221.66-5.35 221.96-5.75L221.96-5.75 220.76-5.6Q217.96-5.2 215.76-5.15L215.76-5.15Q214.66-3.35 214.41-2.15L214.41-2.15Q214.36-1.5 214.76-1.2 215.16-0.9 215.76-0.9ZM233.71 1.45L233.71 1.45Q232.41 1.45 232.41-0.45L232.41-0.45Q232.41-2.4 233.76-6.2L233.76-6.2Q232.16-4.15 230.58-2.58 229.01-1 227.46 0L227.46 0Q226.36 0.8 225.46 0.8L225.46 0.8Q224.26 0.8 224.26-0.85L224.26-0.85Q224.26-1.75 224.56-2.5L224.56-2.5Q224.96-3.6 225.73-5.05 226.51-6.5 227.56-7.95 228.61-9.4 229.71-10.4L229.71-10.4Q230.11-10.65 230.21-10.65L230.21-10.65Q230.56-10.65 230.56-10.25L230.56-10.25Q230.56-10.1 230.41-9.85L230.41-9.85Q229.96-9.35 229.36-8.4 228.76-7.45 228.21-6.35 227.66-5.25 227.28-4.33 226.91-3.4 226.91-2.95L226.91-2.95Q226.91-2.05 227.71-2.05L227.71-2.05Q228.06-2.05 228.46-2.3L228.46-2.3Q230.31-3.45 231.86-5.08 233.41-6.7 234.76-9.5L234.76-9.5Q235.21-9.8 235.76-9.8L235.76-9.8Q236.31-9.8 236.68-9.45 237.06-9.1 237.06-8.5L237.06-8.5Q237.06-8.05 236.81-7.45L236.81-7.45Q236.76-7.25 236.63-7.05 236.51-6.85 236.36-6.6L236.36-6.6Q236.21-6.35 236.11-6.13 236.01-5.9 235.91-5.75L235.91-5.75Q234.96-4.05 234.43-2.9 233.91-1.75 233.91-0.9L233.91-0.9Q233.91 0.1 234.81 0.1L234.81 0.1Q235.61 0.1 236.41-0.5L236.41-0.5Q236.91-0.85 237.26-0.85L237.26-0.85Q237.81-0.85 237.03-0.18 236.26 0.5 235.16 1.05L235.16 1.05Q234.11 1.45 233.71 1.45ZM238.45 1.05L238.45 1.05Q237.8 1.05 237.8-0.1L237.8-0.1Q237.8-1.05 238.25-1.95L238.25-1.95Q239.4-4.15 240.35-6.3L240.35-6.3Q241-7.6 241.58-8.8 242.15-10 242.65-11L242.65-11Q242.95-11.3 243.25-11.3L243.25-11.3Q243.9-11.3 243.65-10.7L243.65-10.7Q243.55-10.35 243.38-9.88 243.2-9.4 242.95-8.75L242.95-8.75Q242.15-6.65 242-5.8L242-5.8Q243.4-7.05 244.88-8.13 246.35-9.2 247.65-9.9 248.95-10.6 249.85-10.6L249.85-10.6Q250.65-10.6 250.65-9.95L250.65-9.95Q250.65-9.4 250.15-8.78 249.65-8.15 249.15-8.15L249.15-8.15Q248.9-8.15 248.75-8.3L248.75-8.3Q248.6-8.35 248.15-8.35L248.15-8.35Q246.55-8.35 244.8-6.8L244.8-6.8Q242.95-5.25 241.45-3.08 239.95-0.9 239.25 0.7L239.25 0.7Q238.9 1.05 238.45 1.05ZM265.45 3.75L265.45 3.75Q264.7 3.75 264.35 3L264.35 3Q264.3 2.95 264.3 2.7L264.3 2.7Q264.3 2.45 264.55 1.55L264.55 1.55Q264.65 1.3 264.72 1.05 264.8 0.8 264.9 0.55L264.9 0.55Q265 0.3 265.1-0.03 265.2-0.35 265.3-0.7L265.3-0.7Q265.5-1.45 265.5-1.95L265.5-1.95Q265.5-2.65 265.05-2.65L265.05-2.65Q264.9-2.65 264.5-2.4L264.5-2.4Q263.85-1.9 263.12-1.45 262.4-1 261.6-0.6L261.6-0.6 260 0.25 258.95 0.85Q258.8 0.9 258.25 1.3L258.25 1.3Q257.75 1.6 257.2 1.6L257.2 1.6Q256.55 1.6 255.75 0.9L255.75 0.9Q255.15 0.3 255.15-0.35L255.15-0.35Q255.15-0.9 255.7-1.9L255.7-1.9Q256.1-2.55 257.05-3.5L257.05-3.5Q257.45-3.9 257.72-4.23 258-4.55 258.2-4.75L258.2-4.75Q260.3-7.55 264.7-9.7L264.7-9.7Q265.95-10.35 266.95-10.35L266.95-10.35Q268.05-10.35 268.7-9.45L268.7-9.45Q269-10.05 269.67-11.18 270.35-12.3 271.17-13.65 272-15 272.77-16.2 273.55-17.4 274-18.05L274-18.05Q275.35-19.9 276.2-20.85L276.2-20.85Q277.05-21.75 277.75-21.75L277.75-21.75Q278-21.75 278.4-21.5L278.4-21.5Q278.75-21.2 278.75-20.7L278.75-20.7Q278.75-19.95 278.1-18.95 277.45-17.95 276.3-16.5L276.3-16.5Q276.2-16.35 276-16.13 275.8-15.9 275.55-15.55L275.55-15.55Q275-14.75 274.4-13.88 273.8-13 273.1-12.15L273.1-12.15Q272.1-10.85 271-9.33 269.9-7.8 268.95-6.15L268.95-6.15Q268.1-4.65 267.5-3.08 266.9-1.5 266.5 0.1L266.5 0.1Q266.45 0.45 266.42 0.68 266.4 0.9 266.4 1L266.4 1 266.45 1.75Q266.5 1.9 266.5 2.45L266.5 2.45Q266.5 3.75 265.45 3.75ZM258.6-0.55L258.6-0.55Q259.15-0.55 259.6-0.75L259.6-0.75Q261.5-1.4 263.2-2.4 264.9-3.4 266.8-5.1L266.8-5.1Q267.05-5.8 267.4-6.6 267.75-7.4 268.15-8.35L268.15-8.35Q267.55-9.6 266.4-9.6L266.4-9.6Q265.65-9.6 264.8-9.1 263.95-8.6 262.9-7.75L262.9-7.75Q261.9-6.95 260.87-5.95 259.85-4.95 259.1-4.03 258.35-3.1 258.05-2.5L258.05-2.5Q257.75-2 257.75-1.35L257.75-1.35Q257.75-0.55 258.6-0.55ZM279 1.35L279 1.35Q278.9 1.35 278.8 1.33 278.7 1.3 278.6 1.25L278.6 1.25Q277.9 0.9 277.7 0.25 277.5-0.4 277.6-1.4L277.6-1.4Q277.7-1.8 277.82-2.8 277.95-3.8 278.15-4.4L278.15-4.4 275.6-1.95 274.2-0.6Q272.75 0.85 271.8 0.85L271.8 0.85Q271.4 0.85 271.15 0.55L271.15 0.55Q270.7 0 270.7-0.8L270.7-0.8Q270.7-1.85 271.25-3.05 271.8-4.25 272.55-5.38 273.3-6.5 273.9-7.25L273.9-7.25Q275.4-9.1 276.82-10.15 278.25-11.2 279.8-11.2L279.8-11.2Q280.65-11.2 281.47-10.9 282.3-10.6 283-9.9L283-9.9 283.05-9.85Q283.05-9.7 282.8-9.55L282.8-9.55Q282.7-9.45 282.62-9.4 282.55-9.35 282.5-9.3L282.5-9.3Q281.9-8.7 281.15-7.3 280.4-5.9 279.85-4.38 279.3-2.85 279.3-1.75L279.3-1.75Q279.3-0.75 279.8-0.4L279.8-0.4Q280.05-0.25 280.35-0.25L280.35-0.25Q281-0.25 282.15-1.05L282.15-1.05Q282.2-1.1 282.37-1.23 282.55-1.35 282.9-1.6L282.9-1.6Q283.3-1.9 283.55-1.9L283.55-1.9Q283.8-1.9 283.8-1.7L283.8-1.7Q283.8-1.4 283.4-1L283.4-1Q283.1-0.75 282.72-0.45 282.35-0.15 281.85 0.15L281.85 0.15Q281.1 0.7 280.3 1.03 279.5 1.35 279 1.35ZM273.35-1.85L273.35-1.85Q274.4-1.85 277.25-4.95L277.25-4.95Q278-5.8 278.6-6.58 279.2-7.35 279.7-8.1L279.7-8.1Q280.6-9.55 280.3-10.1L280.3-10.1Q280.15-10.4 279.7-10.4L279.7-10.4Q279.15-10.4 278.2-9.83 277.25-9.25 276.27-8.35 275.3-7.45 274.5-6.55L274.5-6.55Q273.95-5.85 273.4-4.6 272.85-3.35 272.85-2.55L272.85-2.55Q272.85-1.85 273.35-1.85ZM290.84-10.95L290.84-10.95Q290.19-10.95 290.19-11.25L290.19-11.25Q290.19-11.5 290.57-11.98 290.94-12.45 291.44-12.8L291.44-12.8Q292.54-13.5 293.17-14 293.79-14.5 294.69-15.7L294.69-15.7Q294.74-15.6 294.74-15.3L294.74-15.3Q294.74-14.65 294.22-13.73 293.69-12.8 293.04-12.05 292.39-11.3 291.89-11.1L291.89-11.1Q291.44-10.95 290.84-10.95ZM286.39 1.3L286.39 1.3Q285.99 1.3 285.64 1 285.29 0.7 285.29 0.2L285.29 0.2Q285.29-0.85 286.74-3.65L286.74-3.65 287.29-4.75Q287.39-4.85 287.57-5.25 287.74-5.65 288.09-6.3L288.09-6.3Q288.44-7 288.64-7.55 288.84-8.1 288.94-8.6L288.94-8.6Q288.94-8.65 289.14-8.8 289.34-8.95 289.54-9.05L289.54-9.05 289.84-9.1Q290.24-9.1 290.52-8.95 290.79-8.8 290.69-8.55L290.69-8.55Q290.34-7.8 290.09-7.25 289.84-6.7 289.69-6.3L289.69-6.3 289.64-6.3Q289.09-5.05 288.72-3.93 288.34-2.8 288.39-1.8L288.39-1.8 288.44-0.45Q288.39 0.05 288.09 0.4L288.09 0.4Q287.89 0.55 287.54 0.78 287.19 1 286.64 1.25L286.64 1.25Q286.59 1.3 286.39 1.3ZM291.29 3.3L291.29 3.3Q290.74 3.3 290.37 2.95 289.99 2.6 290.04 2.1L290.04 2.1Q290.14 0.05 290.82-1.85 291.49-3.75 292.79-6.4L292.79-6.4Q292.94-6.75 293.07-7.03 293.19-7.3 293.29-7.5L293.29-7.5Q294.39-9.85 295.54-12 296.69-14.15 297.84-16.2L297.84-16.2 298.54-17.45Q299.74-19.6 300.64-20.93 301.54-22.25 302.44-22.85L302.44-22.85Q303.59-23.55 303.84-23.55L303.84-23.55Q304.24-23.55 304.64-22.85L304.64-22.85Q304.89-22.35 303.64-20.4L303.64-20.4Q302.99-19.4 302.02-17.9 301.04-16.4 299.69-14.5L299.69-14.5Q299.44-14.15 298.87-13.28 298.29-12.4 297.34-11L297.34-11Q296.39-9.6 295.69-8.47 294.99-7.35 294.54-6.5L294.54-6.5Q293.64-4.85 292.84-2.98 292.04-1.1 292.04-0.05L292.04-0.05Q292.04 0.9 292.79 0.9L292.79 0.9Q293.99 0.9 296.64-1.15L296.64-1.15Q296.94-1.1 296.94-0.85L296.94-0.85Q296.94-0.65 296.44-0.15L296.44-0.15Q295.99 0.3 295.32 0.83 294.64 1.35 293.74 2.05L293.74 2.05 292.94 2.65Q292.14 3.3 291.29 3.3ZM299.14 10.25L299.14 10.25Q298.04 10.25 297.34 9.25 296.64 8.25 296.64 6.9L296.64 6.9Q296.64 6.15 296.89 5.55L296.89 5.55Q297.29 4.7 297.54 4.7L297.54 4.7Q297.74 4.7 297.74 5L297.74 5Q297.74 5.25 297.59 5.65L297.59 5.65Q297.54 5.8 297.51 5.93 297.49 6.05 297.49 6.15L297.49 6.15Q297.49 7.05 298.01 8 298.54 8.95 299.34 8.95L299.34 8.95 299.74 8.85Q300.94 8.55 302.01 7.53 303.09 6.5 304.14 5L304.14 5Q305.54 2.95 306.64 0.58 307.74-1.8 308.54-4.15 309.34-6.5 309.74-8.4L309.74-8.4Q309.74-8.65 309.54-8.65L309.54-8.65Q309.19-8.65 308.44-7.85L308.44-7.85Q307.84-7.2 306.89-6.05 305.94-4.9 304.54-3.3L304.54-3.3 303.74-2.35Q302.94-1.4 302.11-0.98 301.29-0.55 300.59-0.55L300.59-0.55Q299.99-0.55 299.59-0.8L299.59-0.8Q299.09-1.15 299.09-2.05L299.09-2.05Q299.09-3.5 300.44-6.85L300.44-6.85 301.09-8.45Q301.59-9.6 301.96-10.55 302.34-11.5 302.69-12.3L302.69-12.3Q303.04-12.95 303.49-12.95L303.49-12.95Q304.04-12.95 303.69-12.3L303.69-12.3Q301.89-8.2 301.59-5.85L301.59-5.85Q301.54-5.75 301.54-5.58 301.54-5.4 301.54-5.2L301.54-5.2Q301.54-4.1 302.44-4.1L302.44-4.1Q303.04-4.1 304.14-4.8L304.14-4.8Q305.24-5.6 306.89-7.33 308.54-9.05 310.84-11.7L310.84-11.7Q311.24-12.1 311.59-12.5 311.94-12.9 312.24-13.25L312.24-13.25Q312.44-13.45 312.59-13.45L312.59-13.45Q312.74-13.45 312.74-13L312.74-13Q312.74-12.55 312.59-11.85L312.59-11.85Q312.44-11.2 312.44-11.05L312.44-11.05Q311.84-7.4 310.24-3.2L310.24-3.2Q308.59 0.95 306.06 4.5 303.54 8.05 300.44 9.85L300.44 9.85Q299.79 10.25 299.14 10.25ZM313.43 14.45L313.43 14.45Q312.93 14.45 312.73 14.35L312.73 14.35Q312.58 14.2 312.43 14 312.28 13.8 312.28 13.65L312.28 13.65Q312.38 11.5 313.63 8.75 314.88 6 316.91 3 318.93 0 321.23-2.75L321.23-2.75Q323.28-5.25 324.08-6.5L324.08-6.5Q324.73-7.6 325.61-9.73 326.48-11.85 327.58-14.95L327.58-14.95Q327.68-15.25 328.33-15.35L328.33-15.35Q329.13-15.35 329.13-14.15L329.13-14.15Q329.13-13.5 328.98-13.2L328.98-13.2Q328.93-12.95 328.86-12.73 328.78-12.5 328.73-12.4L328.73-12.4Q328.58-12.1 328.58-12L328.58-12Q328.58-12 328.63-11.85 328.68-11.7 328.73-11.45L328.73-11.45Q330.38-12.25 331.63-12.73 332.88-13.2 334.03-13.2L334.03-13.2Q335.38-13.2 335.88-12.3L335.88-12.3Q336.03-12 336.03-11.55L336.03-11.55Q336.03-10.45 335.18-8.78 334.33-7.1 333.01-5.33 331.68-3.55 330.13-2.15L330.13-2.15Q329.58-1.65 328.56-1.05 327.53-0.45 326.36 0.08 325.18 0.6 324.11 0.95 323.03 1.3 322.43 1.3L322.43 1.3Q321.78 2.65 321.13 3.93 320.48 5.2 319.78 6.4L319.78 6.4Q316.58 12.1 314.08 14.35L314.08 14.35Q313.98 14.45 313.43 14.45ZM324.38-2.75L323.48-0.85Q325.83-1.25 328.48-2.9L328.48-2.9Q331.13-4.55 332.88-6.85 334.63-9.15 334.48-11.45L334.48-11.45Q334.18-12.35 333.23-12.35L333.23-12.35Q332.58-12.35 331.61-11.9 330.63-11.45 329.63-10.75 328.63-10.05 327.86-9.35 327.08-8.65 326.78-8.15L326.78-8.15Q326.53-7.8 326.18-6.9L326.18-6.9Q325.98-6.5 325.88-6.2 325.78-5.9 325.73-5.8L325.73-5.8Q325.48-5.15 325.13-4.38 324.78-3.6 324.38-2.75L324.38-2.75ZM314.03 11.5L314.03 11.5Q314.03 11.7 314.13 11.7L314.13 11.7Q314.38 11.7 315.03 10.95L315.03 10.95Q316.08 9.85 316.63 8.95L316.63 8.95Q317.63 7.35 318.51 5.75 319.38 4.15 320.18 2.55L320.18 2.55Q321.83-0.65 321.58-1.35L321.58-1.35Q320.83-0.6 319.81 0.83 318.78 2.25 317.71 4 316.63 5.75 315.71 7.48 314.78 9.2 314.28 10.55L314.28 10.55Q314.03 11.4 314.03 11.5ZM343.63 1.45L343.63 1.45Q342.33 1.45 342.33-0.45L342.33-0.45Q342.33-2.4 343.68-6.2L343.68-6.2Q342.08-4.15 340.51-2.58 338.93-1 337.38 0L337.38 0Q336.28 0.8 335.38 0.8L335.38 0.8Q334.18 0.8 334.18-0.85L334.18-0.85Q334.18-1.75 334.48-2.5L334.48-2.5Q334.88-3.6 335.66-5.05 336.43-6.5 337.48-7.95 338.53-9.4 339.63-10.4L339.63-10.4Q340.03-10.65 340.13-10.65L340.13-10.65Q340.48-10.65 340.48-10.25L340.48-10.25Q340.48-10.1 340.33-9.85L340.33-9.85Q339.88-9.35 339.28-8.4 338.68-7.45 338.13-6.35 337.58-5.25 337.21-4.33 336.83-3.4 336.83-2.95L336.83-2.95Q336.83-2.05 337.63-2.05L337.63-2.05Q337.98-2.05 338.38-2.3L338.38-2.3Q340.23-3.45 341.78-5.08 343.33-6.7 344.68-9.5L344.68-9.5Q345.13-9.8 345.68-9.8L345.68-9.8Q346.23-9.8 346.61-9.45 346.98-9.1 346.98-8.5L346.98-8.5Q346.98-8.05 346.73-7.45L346.73-7.45Q346.68-7.25 346.56-7.05 346.43-6.85 346.28-6.6L346.28-6.6Q346.13-6.35 346.03-6.13 345.93-5.9 345.83-5.75L345.83-5.75Q344.88-4.05 344.36-2.9 343.83-1.75 343.83-0.9L343.83-0.9Q343.83 0.1 344.73 0.1L344.73 0.1Q345.53 0.1 346.33-0.5L346.33-0.5Q346.83-0.85 347.18-0.85L347.18-0.85Q347.73-0.85 346.96-0.18 346.18 0.5 345.08 1.05L345.08 1.05Q344.03 1.45 343.63 1.45ZM347.08 2.1L347.08 2.1Q346.28 2.1 345.68 1.95L345.68 1.95Q345.13 1.8 345.13 1.55L345.13 1.55Q345.13 1.15 345.93 1.1L345.93 1.1Q346.68 1.05 346.93 0.95L346.93 0.95Q347.38 0.85 347.98 0.8L347.98 0.8Q348.53 0.7 348.88 0.65L348.88 0.65Q351.28-0.05 351.28-1.5L351.28-1.5Q351.28-2.5 350.23-4.05L350.23-4.05Q349.58-5 349.58-6.15L349.58-6.15Q349.58-7.55 350.45-8.9 351.33-10.25 352.65-11.28 353.98-12.3 355.33-12.65L355.33-12.65Q355.93-12.8 356.58-12.8L356.58-12.8Q357.63-12.8 358.08-12.3L358.08-12.3Q358.38-12 358.38-11L358.38-11Q358.38-10.25 358.13-9.47 357.88-8.7 357.43-8.2L357.43-8.2Q357.18-7.95 357.03-7.95L357.03-7.95Q356.78-7.95 356.78-8.65L356.78-8.65 356.83-9.65Q356.88-10.05 356.9-10.35 356.93-10.65 356.93-10.85L356.93-10.85Q356.93-11.7 356.58-11.85L356.58-11.85Q356.18-11.95 356.03-11.95L356.03-11.95Q354.98-11.95 353.78-11 352.58-10.05 351.83-8.8L351.83-8.8Q351.53-8.35 351.53-7.7L351.53-7.7Q351.53-6.9 351.95-5.83 352.38-4.75 352.58-4.25L352.58-4.25Q353.08-3.15 353.35-2.35 353.63-1.55 353.63-0.95L353.63-0.95Q353.63-0.65 353.58-0.5L353.58-0.5Q353.83-0.6 354.78-0.8L354.78-0.8Q355.63-1 356.23-1L356.23-1Q356.58-1 356.58-0.85L356.58-0.85Q356.58-0.8 356.28-0.5L356.28-0.5Q356.13-0.35 355.35-0.03 354.58 0.3 353.55 0.65 352.53 1 351.53 1.3 350.53 1.6 349.83 1.75L349.83 1.75Q348.63 2.1 347.08 2.1ZM357.78 2.95L357.63 2.95Q356.58 2.95 356.73 1.9L356.73 1.9Q357.03 0 357.78-1.9L357.78-1.9Q358.18-2.9 358.8-4.2 359.43-5.5 360.28-7.1L360.28-7.1Q360.73-7.95 361.05-8.6 361.38-9.25 361.58-9.65L361.58-9.65Q361.93-10.35 362.3-11.15 362.68-11.95 363.08-12.9L363.08-12.9Q364.98-17.05 366.35-19.43 367.73-21.8 369.33-22.8L369.33-22.8Q369.43-22.9 369.88-22.83 370.33-22.75 370.75-22.6 371.18-22.45 371.28-22.25L371.28-22.25Q371.43-21.9 371.43-21.25L371.43-21.25Q371.43-19.25 369.58-16.45L369.58-16.45Q368.58-14.95 367.05-13.18 365.53-11.4 363.48-9.35L363.48-9.35 362.58-7.9Q361.08-5.5 360.25-3.8 359.43-2.1 359.63-0.8L359.63-0.8Q359.73-0.5 359.88-0.5L359.88-0.5Q360.03-0.5 360.38-0.75L360.38-0.75Q360.73-1 361.1-1.35 361.48-1.7 361.83-2.2L361.83-2.2Q362.08-2.45 362.25-2.75 362.43-3.05 362.63-3.3L362.63-3.3Q362.93-3.85 363.23-4.2L363.23-4.2Q364.18-5.8 364.83-6.45L364.83-6.45Q365.93-7.55 366.78-7.55L366.78-7.55Q367.78-7.55 368.55-6.48 369.33-5.4 370.23-3.4L370.23-3.4Q370.88-1.9 371.43-1.1L371.43-1.1Q371.98-0.35 372.48-0.35L372.48-0.35Q372.98-0.35 373.63-0.95L373.63-0.95Q374.23-1.5 374.68-1.55L374.68-1.55Q374.98-1.2 374.63-0.68 374.28-0.15 373.6 0.33 372.93 0.8 372.28 1.1 371.63 1.4 371.28 1.3L371.28 1.3Q369.88 0.9 369.1-0.13 368.33-1.15 367.58-2.8L367.58-2.8Q367.33-3.35 367.13-3.78 366.93-4.2 366.73-4.45L366.73-4.45Q366.38-4.95 365.78-4.95L365.78-4.95Q365.33-4.95 364.73-4.5L364.73-4.5Q364.13-4 363.53-3.33 362.93-2.65 362.38-1.7L362.38-1.7Q362.03-1.2 361.85-0.93 361.68-0.65 361.58-0.55L361.58-0.55Q361.33-0.2 360.8 0.48 360.28 1.15 359.58 2.15L359.58 2.15Q359.33 2.45 358.8 2.7 358.28 2.95 357.78 2.95L357.78 2.95ZM363.73-11.4L363.73-11.4Q363.88-11.3 364.48-11.88 365.08-12.45 365.85-13.38 366.63-14.3 367.4-15.33 368.18-16.35 368.63-17.15L368.63-17.15Q370.18-19.8 370.18-20.65L370.18-20.65Q370.18-21 369.93-21.15L369.93-21.15Q369.43-21.55 368.58-20.73 367.73-19.9 366.88-18.57 366.03-17.25 365.43-15.95L365.43-15.95Q365.08-15.15 364.7-14.15 364.33-13.15 364.08-12.38 363.83-11.6 363.73-11.4ZM385.02 1.45L385.02 1.45Q383.72 1.45 383.72-0.45L383.72-0.45Q383.72-2.4 385.07-6.2L385.07-6.2Q383.47-4.15 381.9-2.58 380.32-1 378.77 0L378.77 0Q377.67 0.8 376.77 0.8L376.77 0.8Q375.57 0.8 375.57-0.85L375.57-0.85Q375.57-1.75 375.87-2.5L375.87-2.5Q376.27-3.6 377.05-5.05 377.82-6.5 378.87-7.95 379.92-9.4 381.02-10.4L381.02-10.4Q381.42-10.65 381.52-10.65L381.52-10.65Q381.87-10.65 381.87-10.25L381.87-10.25Q381.87-10.1 381.72-9.85L381.72-9.85Q381.27-9.35 380.67-8.4 380.07-7.45 379.52-6.35 378.97-5.25 378.6-4.33 378.22-3.4 378.22-2.95L378.22-2.95Q378.22-2.05 379.02-2.05L379.02-2.05Q379.37-2.05 379.77-2.3L379.77-2.3Q381.62-3.45 383.17-5.08 384.72-6.7 386.07-9.5L386.07-9.5Q386.52-9.8 387.07-9.8L387.07-9.8Q387.62-9.8 388-9.45 388.37-9.1 388.37-8.5L388.37-8.5Q388.37-8.05 388.12-7.45L388.12-7.45Q388.07-7.25 387.95-7.05 387.82-6.85 387.67-6.6L387.67-6.6Q387.52-6.35 387.42-6.13 387.32-5.9 387.22-5.75L387.22-5.75Q386.27-4.05 385.75-2.9 385.22-1.75 385.22-0.9L385.22-0.9Q385.22 0.1 386.12 0.1L386.12 0.1Q386.92 0.1 387.72-0.5L387.72-0.5Q388.22-0.85 388.57-0.85L388.57-0.85Q389.12-0.85 388.35-0.18 387.57 0.5 386.47 1.05L386.47 1.05Q385.42 1.45 385.02 1.45ZM382.42 14.45L382.42 14.45Q381.92 14.45 381.72 14.35L381.72 14.35Q381.57 14.2 381.42 14 381.27 13.8 381.27 13.65L381.27 13.65Q381.37 11.5 382.62 8.75 383.87 6 385.9 3 387.92 0 390.22-2.75L390.22-2.75Q392.27-5.25 393.07-6.5L393.07-6.5Q393.72-7.6 394.6-9.73 395.47-11.85 396.57-14.95L396.57-14.95Q396.67-15.25 397.32-15.35L397.32-15.35Q398.12-15.35 398.12-14.15L398.12-14.15Q398.12-13.5 397.97-13.2L397.97-13.2Q397.92-12.95 397.85-12.73 397.77-12.5 397.72-12.4L397.72-12.4Q397.57-12.1 397.57-12L397.57-12Q397.57-12 397.62-11.85 397.67-11.7 397.72-11.45L397.72-11.45Q399.37-12.25 400.62-12.73 401.87-13.2 403.02-13.2L403.02-13.2Q404.37-13.2 404.87-12.3L404.87-12.3Q405.02-12 405.02-11.55L405.02-11.55Q405.02-10.45 404.17-8.78 403.32-7.1 402-5.33 400.67-3.55 399.12-2.15L399.12-2.15Q398.57-1.65 397.55-1.05 396.52-0.45 395.35 0.08 394.17 0.6 393.1 0.95 392.02 1.3 391.42 1.3L391.42 1.3Q390.77 2.65 390.12 3.93 389.47 5.2 388.77 6.4L388.77 6.4Q385.57 12.1 383.07 14.35L383.07 14.35Q382.97 14.45 382.42 14.45ZM393.37-2.75L392.47-0.85Q394.82-1.25 397.47-2.9L397.47-2.9Q400.12-4.55 401.87-6.85 403.62-9.15 403.47-11.45L403.47-11.45Q403.17-12.35 402.22-12.35L402.22-12.35Q401.57-12.35 400.6-11.9 399.62-11.45 398.62-10.75 397.62-10.05 396.85-9.35 396.07-8.65 395.77-8.15L395.77-8.15Q395.52-7.8 395.17-6.9L395.17-6.9Q394.97-6.5 394.87-6.2 394.77-5.9 394.72-5.8L394.72-5.8Q394.47-5.15 394.12-4.38 393.77-3.6 393.37-2.75L393.37-2.75ZM383.02 11.5L383.02 11.5Q383.02 11.7 383.12 11.7L383.12 11.7Q383.37 11.7 384.02 10.95L384.02 10.95Q385.07 9.85 385.62 8.95L385.62 8.95Q386.62 7.35 387.5 5.75 388.37 4.15 389.17 2.55L389.17 2.55Q390.82-0.65 390.57-1.35L390.57-1.35Q389.82-0.6 388.8 0.83 387.77 2.25 386.7 4 385.62 5.75 384.7 7.48 383.77 9.2 383.27 10.55L383.27 10.55Q383.02 11.4 383.02 11.5ZM404.72 14.45L404.72 14.45Q404.22 14.45 404.02 14.35L404.02 14.35Q403.87 14.2 403.72 14 403.57 13.8 403.57 13.65L403.57 13.65Q403.67 11.5 404.92 8.75 406.17 6 408.19 3 410.22 0 412.52-2.75L412.52-2.75Q414.57-5.25 415.37-6.5L415.37-6.5Q416.02-7.6 416.89-9.73 417.77-11.85 418.87-14.95L418.87-14.95Q418.97-15.25 419.62-15.35L419.62-15.35Q420.42-15.35 420.42-14.15L420.42-14.15Q420.42-13.5 420.27-13.2L420.27-13.2Q420.22-12.95 420.14-12.73 420.07-12.5 420.02-12.4L420.02-12.4Q419.87-12.1 419.87-12L419.87-12Q419.87-12 419.92-11.85 419.97-11.7 420.02-11.45L420.02-11.45Q421.67-12.25 422.92-12.73 424.17-13.2 425.32-13.2L425.32-13.2Q426.67-13.2 427.17-12.3L427.17-12.3Q427.32-12 427.32-11.55L427.32-11.55Q427.32-10.45 426.47-8.78 425.62-7.1 424.29-5.33 422.97-3.55 421.42-2.15L421.42-2.15Q420.87-1.65 419.84-1.05 418.82-0.45 417.64 0.08 416.47 0.6 415.39 0.95 414.32 1.3 413.72 1.3L413.72 1.3Q413.07 2.65 412.42 3.93 411.77 5.2 411.07 6.4L411.07 6.4Q407.87 12.1 405.37 14.35L405.37 14.35Q405.27 14.45 404.72 14.45ZM415.67-2.75L414.77-0.85Q417.12-1.25 419.77-2.9L419.77-2.9Q422.42-4.55 424.17-6.85 425.92-9.15 425.77-11.45L425.77-11.45Q425.47-12.35 424.52-12.35L424.52-12.35Q423.87-12.35 422.89-11.9 421.92-11.45 420.92-10.75 419.92-10.05 419.14-9.35 418.37-8.65 418.07-8.15L418.07-8.15Q417.82-7.8 417.47-6.9L417.47-6.9Q417.27-6.5 417.17-6.2 417.07-5.9 417.02-5.8L417.02-5.8Q416.77-5.15 416.42-4.38 416.07-3.6 415.67-2.75L415.67-2.75ZM405.32 11.5L405.32 11.5Q405.32 11.7 405.42 11.7L405.42 11.7Q405.67 11.7 406.32 10.95L406.32 10.95Q407.37 9.85 407.92 8.95L407.92 8.95Q408.92 7.35 409.79 5.75 410.67 4.15 411.47 2.55L411.47 2.55Q413.12-0.65 412.87-1.35L412.87-1.35Q412.12-0.6 411.09 0.83 410.07 2.25 408.99 4 407.92 5.75 406.99 7.48 406.07 9.2 405.57 10.55L405.57 10.55Q405.32 11.4 405.32 11.5ZM425.61 1.05L425.61 1.05Q424.96 1.05 424.96-0.1L424.96-0.1Q424.96-1.05 425.41-1.95L425.41-1.95Q426.56-4.15 427.51-6.3L427.51-6.3Q428.16-7.6 428.74-8.8 429.31-10 429.81-11L429.81-11Q430.11-11.3 430.41-11.3L430.41-11.3Q431.06-11.3 430.81-10.7L430.81-10.7Q430.71-10.35 430.54-9.88 430.36-9.4 430.11-8.75L430.11-8.75Q429.31-6.65 429.16-5.8L429.16-5.8Q430.56-7.05 432.04-8.13 433.51-9.2 434.81-9.9 436.11-10.6 437.01-10.6L437.01-10.6Q437.81-10.6 437.81-9.95L437.81-9.95Q437.81-9.4 437.31-8.78 436.81-8.15 436.31-8.15L436.31-8.15Q436.06-8.15 435.91-8.3L435.91-8.3Q435.76-8.35 435.31-8.35L435.31-8.35Q433.71-8.35 431.96-6.8L431.96-6.8Q430.11-5.25 428.61-3.08 427.11-0.9 426.41 0.7L426.41 0.7Q426.06 1.05 425.61 1.05ZM437.11 0.85L437.11 0.85Q435.16 0.85 435.16-0.9L435.16-0.9Q435.16-1 435.19-1.25 435.21-1.5 435.26-1.85L435.26-1.85Q435.76-3.9 437.29-5.83 438.81-7.75 440.81-9.2L440.81-9.2Q441.56-9.8 443.21-9.8L443.21-9.8Q444.16-9.8 444.89-9.53 445.61-9.25 445.91-8.7L445.91-8.7Q446.21-8.2 446.21-7.55L446.21-7.55Q446.21-7.45 446.19-7.25 446.16-7.05 446.11-6.8L446.11-6.8Q446.21-6.85 446.44-6.85 446.66-6.85 447.01-6.9L447.01-6.9Q447.36-6.95 447.69-7 448.01-7.05 448.36-7.05L448.36-7.05 448.56-7.05Q449.11-7.05 448.69-6.63 448.26-6.2 447.56-6.1L447.56-6.1 445.86-5.9Q445.36-4.5 444.14-3.1 442.91-1.7 441.44-0.68 439.96 0.35 438.66 0.65L438.66 0.65Q437.91 0.85 437.11 0.85ZM443.51-6.6L443.51-6.6Q443.81-6.6 444.24-6.63 444.66-6.65 445.21-6.7L445.21-6.7Q445.26-6.8 445.26-7.15L445.26-7.15Q445.26-8.05 444.51-8.4L444.51-8.4Q444.11-8.65 443.51-8.65L443.51-8.65Q442.76-8.65 441.99-8.18 441.21-7.7 440.36-6.95L440.36-6.95Q441.41-6.6 443.51-6.6ZM438.61-0.9L438.61-0.9Q439.11-0.9 440.04-1.38 440.96-1.85 441.96-2.65 442.96-3.45 443.76-4.35L443.76-4.35Q444.01-4.6 444.26-4.98 444.51-5.35 444.81-5.75L444.81-5.75 443.61-5.6Q440.81-5.2 438.61-5.15L438.61-5.15Q437.51-3.35 437.26-2.15L437.26-2.15Q437.21-1.5 437.61-1.2 438.01-0.9 438.61-0.9ZM447.16 10.75L447.16 10.75Q446.06 10.75 445.33 9.73 444.61 8.7 444.61 7.4L444.61 7.4Q444.61 6.35 444.91 5.85L444.91 5.85Q445.31 5.3 445.66 5.3L445.66 5.3Q446.06 5.3 446.06 5.75L446.06 5.75Q446.06 6.15 445.76 6.55L445.76 6.55Q445.56 6.8 445.56 7.2L445.56 7.2Q445.56 7.95 446.06 8.7 446.56 9.45 447.26 9.45L447.26 9.45Q447.36 9.45 447.46 9.43 447.56 9.4 447.71 9.35L447.71 9.35Q450.06 8.45 452.01 5.6L452.01 5.6Q453.96 2.7 455.21-0.78 456.46-4.25 457.06-7.2L457.06-7.2 456.86-7.25Q456.71-7.35 456.41-7.03 456.11-6.7 455.81-6.33 455.51-5.95 455.41-5.8L455.41-5.8Q455.26-5.6 454.63-4.93 454.01-4.25 453.16-3.43 452.31-2.6 451.46-1.8 450.61-1 450.01-0.5L450.01-0.5Q449.26 0.15 448.16 0.15L448.16 0.15Q447.86 0.15 447.56 0.05L447.56 0.05Q447.01-0.25 447.01-0.9L447.01-0.9Q447.01-1.75 448.01-3.5L448.01-3.5Q448.76-4.8 450.26-6.78 451.76-8.75 453.56-10.15L453.56-10.15Q454.86-11.2 456.26-11.5L456.26-11.5Q456.51-11.55 456.76-11.58 457.01-11.6 457.26-11.65L457.26-11.65Q457.51-11.65 457.71-11.65 457.91-11.65 458.11-11.7L458.11-11.7Q458.16-11.7 458.88-11.78 459.61-11.85 459.81-12.25L459.81-12.25 459.96-12.3Q460.16-12.3 460.36-12.1L460.36-12.1Q460.51-11.95 460.51-11.5L460.51-11.5Q460.51-11.35 460.46-11.13 460.41-10.9 460.41-10.6L460.41-10.6 460.41-10.55Q460.41-8.7 459.71-6.73 459.01-4.75 458.21-2.7L458.21-2.7Q456.56 1.45 454.03 5 451.51 8.55 448.46 10.35L448.46 10.35Q447.81 10.75 447.16 10.75ZM448.66-1.65L448.66-1.65Q448.86-1.55 448.96-1.55L448.96-1.55Q449.21-1.55 449.71-1.8L449.71-1.8Q450.06-2 450.43-2.3 450.81-2.6 451.31-3L451.31-3Q451.66-3.25 452.11-3.7 452.56-4.15 453.16-4.75L453.16-4.75 454.11-5.65Q454.81-6.35 455.61-7.3 456.41-8.25 456.96-9.15 457.51-10.05 457.51-10.55L457.51-10.55Q457.51-11 456.96-11L456.96-11Q456.41-11 455.48-10.4 454.56-9.8 453.58-8.95 452.61-8.1 451.91-7.3L451.91-7.3Q451.26-6.65 450.68-5.88 450.11-5.1 449.56-4.25L449.56-4.25Q448.91-3.3 448.66-2.6L448.66-2.6Q448.36-1.85 448.66-1.65ZM460.61 1.05L460.61 1.05Q459.96 1.05 459.96-0.1L459.96-0.1Q459.96-1.05 460.41-1.95L460.41-1.95Q461.56-4.15 462.51-6.3L462.51-6.3Q463.16-7.6 463.73-8.8 464.31-10 464.81-11L464.81-11Q465.11-11.3 465.41-11.3L465.41-11.3Q466.06-11.3 465.81-10.7L465.81-10.7Q465.71-10.35 465.53-9.88 465.36-9.4 465.11-8.75L465.11-8.75Q464.31-6.65 464.16-5.8L464.16-5.8Q465.56-7.05 467.03-8.13 468.51-9.2 469.81-9.9 471.11-10.6 472.01-10.6L472.01-10.6Q472.81-10.6 472.81-9.95L472.81-9.95Q472.81-9.4 472.31-8.78 471.81-8.15 471.31-8.15L471.31-8.15Q471.06-8.15 470.91-8.3L470.91-8.3Q470.76-8.35 470.31-8.35L470.31-8.35Q468.71-8.35 466.96-6.8L466.96-6.8Q465.11-5.25 463.61-3.08 462.11-0.9 461.41 0.7L461.41 0.7Q461.06 1.05 460.61 1.05ZM473.3 0.55L473.3 0.55Q472.25 0.55 471.45 0L471.45 0Q470.15-1 470.15-3L470.15-3Q470.15-5 471.55-7.25 472.95-9.5 475.8-11.4L475.8-11.4Q476.3-11.75 477.15-11.75L477.15-11.75Q478.25-11.75 479.13-11.15 480-10.55 479.8-9.6L479.8-9.6Q479.45-8.05 478.28-6.85 477.1-5.65 475.53-4.73 473.95-3.8 472.3-2.95L472.3-2.95Q472.25-2.8 472.23-2.65 472.2-2.5 472.2-2.35L472.2-2.35Q472.2-1.65 472.68-1.13 473.15-0.6 474-0.6L474-0.6Q474.65-0.6 475.1-0.8L475.1-0.8Q475.9-1.1 476.43-1.35 476.95-1.6 477.65-2.1 478.35-2.6 479.55-3.6L479.55-3.6Q480.1-4 480.2-4L480.2-4Q480.5-4 480.4-3.55L480.4-3.55Q479.9-2.75 478.68-1.8 477.45-0.85 475.98-0.15 474.5 0.55 473.3 0.55ZM472.6-4.3L472.6-4.3Q473-4.3 474.25-5.1 475.5-5.9 476.6-6.85L476.6-6.85Q478.5-8.6 478.5-9.55L478.5-9.55Q478.5-9.8 478.35-10L478.35-10Q478.2-10.25 477.9-10.25L477.9-10.25Q476.95-10.25 474.7-8L474.7-8Q473.15-6.5 472.6-4.3ZM479.05 2.1L479.05 2.1Q478.25 2.1 477.65 1.95L477.65 1.95Q477.1 1.8 477.1 1.55L477.1 1.55Q477.1 1.15 477.9 1.1L477.9 1.1Q478.65 1.05 478.9 0.95L478.9 0.95Q479.35 0.85 479.95 0.8L479.95 0.8Q480.5 0.7 480.85 0.65L480.85 0.65Q483.25-0.05 483.25-1.5L483.25-1.5Q483.25-2.5 482.2-4.05L482.2-4.05Q481.55-5 481.55-6.15L481.55-6.15Q481.55-7.55 482.43-8.9 483.3-10.25 484.63-11.28 485.95-12.3 487.3-12.65L487.3-12.65Q487.9-12.8 488.55-12.8L488.55-12.8Q489.6-12.8 490.05-12.3L490.05-12.3Q490.35-12 490.35-11L490.35-11Q490.35-10.25 490.1-9.47 489.85-8.7 489.4-8.2L489.4-8.2Q489.15-7.95 489-7.95L489-7.95Q488.75-7.95 488.75-8.65L488.75-8.65 488.8-9.65Q488.85-10.05 488.88-10.35 488.9-10.65 488.9-10.85L488.9-10.85Q488.9-11.7 488.55-11.85L488.55-11.85Q488.15-11.95 488-11.95L488-11.95Q486.95-11.95 485.75-11 484.55-10.05 483.8-8.8L483.8-8.8Q483.5-8.35 483.5-7.7L483.5-7.7Q483.5-6.9 483.93-5.83 484.35-4.75 484.55-4.25L484.55-4.25Q485.05-3.15 485.33-2.35 485.6-1.55 485.6-0.95L485.6-0.95Q485.6-0.65 485.55-0.5L485.55-0.5Q485.8-0.6 486.75-0.8L486.75-0.8Q487.6-1 488.2-1L488.2-1Q488.55-1 488.55-0.85L488.55-0.85Q488.55-0.8 488.25-0.5L488.25-0.5Q488.1-0.35 487.33-0.03 486.55 0.3 485.53 0.65 484.5 1 483.5 1.3 482.5 1.6 481.8 1.75L481.8 1.75Q480.6 2.1 479.05 2.1ZM488.65 2.1L488.65 2.1Q487.85 2.1 487.25 1.95L487.25 1.95Q486.7 1.8 486.7 1.55L486.7 1.55Q486.7 1.15 487.5 1.1L487.5 1.1Q488.25 1.05 488.5 0.95L488.5 0.95Q488.95 0.85 489.55 0.8L489.55 0.8Q490.1 0.7 490.45 0.65L490.45 0.65Q492.85-0.05 492.85-1.5L492.85-1.5Q492.85-2.5 491.8-4.05L491.8-4.05Q491.15-5 491.15-6.15L491.15-6.15Q491.15-7.55 492.02-8.9 492.9-10.25 494.22-11.28 495.55-12.3 496.9-12.65L496.9-12.65Q497.5-12.8 498.15-12.8L498.15-12.8Q499.2-12.8 499.65-12.3L499.65-12.3Q499.95-12 499.95-11L499.95-11Q499.95-10.25 499.7-9.47 499.45-8.7 499-8.2L499-8.2Q498.75-7.95 498.6-7.95L498.6-7.95Q498.35-7.95 498.35-8.65L498.35-8.65 498.4-9.65Q498.45-10.05 498.47-10.35 498.5-10.65 498.5-10.85L498.5-10.85Q498.5-11.7 498.15-11.85L498.15-11.85Q497.75-11.95 497.6-11.95L497.6-11.95Q496.55-11.95 495.35-11 494.15-10.05 493.4-8.8L493.4-8.8Q493.1-8.35 493.1-7.7L493.1-7.7Q493.1-6.9 493.52-5.83 493.95-4.75 494.15-4.25L494.15-4.25Q494.65-3.15 494.92-2.35 495.2-1.55 495.2-0.95L495.2-0.95Q495.2-0.65 495.15-0.5L495.15-0.5Q495.4-0.6 496.35-0.8L496.35-0.8Q497.2-1 497.8-1L497.8-1Q498.15-1 498.15-0.85L498.15-0.85Q498.15-0.8 497.85-0.5L497.85-0.5Q497.7-0.35 496.92-0.03 496.15 0.3 495.12 0.65 494.1 1 493.1 1.3 492.1 1.6 491.4 1.75L491.4 1.75Q490.2 2.1 488.65 2.1Z" opacity="1" transform="matrix(1,0,0,1,0,0)" fill="#009b7d" class="slogan-text-1" data-fill-palette-color="secondary" id="text-1"></path></svg></g></svg></g></svg></g></svg></g></svg></g><defs></defs></svg><rect width="395.52" height="102.88689132063874" fill="none" stroke="none" visibility="hidden"></rect></g></svg></g></svg>